# xmcd
#
# Track frame offsets: 
#        150
#        23318
#        41224
#        57549
#        82222
#        84890
#        101583
#        125767
#        147877
#        170648
#        190413
#        208666
#        229957
#        245764
#
# Disc length: 3597 seconds
#
# Revision: 9
# Processed by: cddbd v1.5.1PL2 Copyright (c) Steve Scherf et al.
# Submitted via: ExactAudioCopy v0.95b3
#
DISCID=cb0e0b0e
DTITLE=Atomic Aggressor - Bloody Ceremonial
DYEAR=2002
DGENRE=Death Metal
TTITLE0=Beyond Reality
TTITLE1=Bleed in the Altar
TTITLE2=Bloody Ceremonial
TTITLE3=The Session
TTITLE4=Intro
TTITLE5=Bloody Ceremonial
TTITLE6=Twilight Spectres
TTITLE7=The Spell of Necronomicon  
TTITLE8=Hallucinations
TTITLE9=Unholy Temple
TTITLE10=Bleed in the Altar (Live)
TTITLE11=Beyond Reality (Live)
TTITLE12=Bloody Ceremonial (Live)
TTITLE13=The Session (Live)  
EXTD=pirata album hecho por el huason reculiao\n YEAR: 2002
EXTT0=
EXTT1=
EXTT2=
EXTT3=
EXTT4=
EXTT5=
EXTT6=
EXTT7=
EXTT8=
EXTT9=
EXTT10=
EXTT11=
EXTT12=
EXTT13=
PLAYORDER=
